name rise37.2698peak67.6939fall79.5734.mot
datacolumns 19
datarows 23
range 4.61665200000000 4.65331400000000
endheader
time	ground_force1_vx	ground_force1_vy	ground_force1_vz	ground_force1_px	ground_force1_py	ground_force1_pz	ground_force2_vx	ground_force2_vy	ground_force2_vz	ground_force2_px	ground_force2_py	ground_force2_pz	ground_torque1_x	ground_torque1_y	ground_torque1_z	ground_torque2_x	ground_torque2_y	ground_torque2_z	
4.61665200000000	-5.68141800000000	42.52360900000000	-7.33513500000000	0.29541100000000	0.00000000000000	0.11865000000000	-37.17209400000000	797.20498599999996	-63.62596500000000	0.13490500000000	0.00000000000000	-0.09757600000000	0.00000000000000	-4.28601900000000	0.00000000000000	0.00000000000000	-22.05859100000000	0.00000000000000	
4.61831800000000	-6.09586000000000	49.92529600000000	-8.14943000000000	0.30160700000000	0.00000000000000	0.11983800000000	-37.94080000000000	794.16144499999996	-63.25511200000000	0.13402100000000	0.00000000000000	-0.09744800000000	0.00000000000000	-4.85399600000000	0.00000000000000	0.00000000000000	-22.00553400000000	0.00000000000000	
4.61999200000000	-6.36535800000000	57.44349300000000	-8.85288600000000	0.30715300000000	0.00000000000000	0.12090500000000	-38.72899600000000	790.97202600000003	-62.86239000000000	0.13313500000000	0.00000000000000	-0.09731700000000	0.00000000000000	-5.37462900000000	0.00000000000000	0.00000000000000	-21.95391500000000	0.00000000000000	
4.62165100000000	-6.47374600000000	64.98363000000001	-9.42556900000000	0.31215100000000	0.00000000000000	0.12186900000000	-39.53560800000000	787.63399100000004	-62.44786400000000	0.13224600000000	0.00000000000000	-0.09718300000000	0.00000000000000	-5.83474200000000	0.00000000000000	0.00000000000000	-21.90361500000000	0.00000000000000	
4.62331300000000	-6.41218800000000	72.47383100000000	-9.85483400000000	0.31668200000000	0.00000000000000	0.12274700000000	-40.35943500000000	784.14453700000001	-62.01161400000000	0.13135500000000	0.00000000000000	-0.09704600000000	0.00000000000000	-6.22522700000000	0.00000000000000	0.00000000000000	-21.85449500000000	0.00000000000000	
4.62498700000000	-6.17896000000000	79.86720200000001	-10.13530800000000	0.32081200000000	0.00000000000000	0.12355100000000	-41.19915300000000	780.50081200000000	-61.55374500000000	0.13046300000000	0.00000000000000	-0.09690600000000	0.00000000000000	-6.54118600000000	0.00000000000000	0.00000000000000	-21.80639000000000	0.00000000000000	
4.62665200000000	-5.77869100000000	87.14169699999999	-10.26829700000000	0.32459500000000	0.00000000000000	0.12429100000000	-42.05331400000000	776.69991800000003	-61.07437900000000	0.12957000000000	0.00000000000000	-0.09676300000000	0.00000000000000	-6.78169700000000	0.00000000000000	0.00000000000000	-21.75911300000000	0.00000000000000	
4.62831900000000	-5.22120800000000	94.29794500000000	-10.26073700000000	0.32807600000000	0.00000000000000	0.12497500000000	-42.92034600000000	772.73892899999998	-60.57366000000000	0.12867600000000	0.00000000000000	-0.09661700000000	0.00000000000000	-6.94929600000000	0.00000000000000	0.00000000000000	-21.71245300000000	0.00000000000000	
4.62998600000000	-4.52016600000000	101.35559000000001	-10.12387100000000	0.33129000000000	0.00000000000000	0.12561100000000	-43.79855700000000	768.61490300000003	-60.05175400000000	0.12778300000000	0.00000000000000	-0.09646900000000	0.00000000000000	-7.04925800000000	0.00000000000000	0.00000000000000	-21.66617800000000	0.00000000000000	
4.63164700000000	-3.69159800000000	108.34870600000001	-9.87179700000000	0.33426800000000	0.00000000000000	0.12620400000000	-44.68613800000000	764.32489599999997	-59.50884400000000	0.12689000000000	0.00000000000000	-0.09631700000000	0.00000000000000	-7.08877800000000	0.00000000000000	0.00000000000000	-21.62003300000000	0.00000000000000	
4.63331400000000	-2.75252300000000	115.32081599999999	-9.52004500000000	0.33703700000000	0.00000000000000	0.12675900000000	-45.58116200000000	759.86597900000004	-58.94513900000000	0.12599900000000	0.00000000000000	-0.09616200000000	0.00000000000000	-7.07613900000000	0.00000000000000	0.00000000000000	-21.57374200000000	0.00000000000000	
4.63498100000000	-1.71971500000000	122.31999900000000	-9.08427500000000	0.33961800000000	0.00000000000000	0.12728000000000	-46.48159300000000	755.23525700000005	-58.36086600000000	0.12510900000000	0.00000000000000	-0.09600500000000	0.00000000000000	-7.01993100000000	0.00000000000000	0.00000000000000	-21.52700900000000	0.00000000000000	
4.63664900000000	-0.60871300000000	129.39445599999999	-8.57918900000000	0.34203100000000	0.00000000000000	0.12777100000000	-47.38528700000000	750.42988500000001	-57.75627500000000	0.12422300000000	0.00000000000000	-0.09584500000000	0.00000000000000	-6.92837700000000	0.00000000000000	0.00000000000000	-21.47951500000000	0.00000000000000	
4.63832800000000	0.56691500000000	136.58881299999999	-8.01771200000000	0.34429100000000	0.00000000000000	0.12823400000000	-48.28999500000000	745.44709200000000	-57.13163700000000	0.12334000000000	0.00000000000000	-0.09568200000000	0.00000000000000	-6.80881100000000	0.00000000000000	0.00000000000000	-21.43092400000000	0.00000000000000	
4.63998900000000	1.79601900000000	143.94129699999999	-7.41044600000000	0.34641100000000	0.00000000000000	0.12867200000000	-49.19337500000000	740.28419599999995	-56.48724700000000	0.12246100000000	0.00000000000000	-0.09551600000000	0.00000000000000	-6.66730800000000	0.00000000000000	0.00000000000000	-21.38088400000000	0.00000000000000	
4.64165200000000	3.07004700000000	151.48187100000001	-6.76539200000000	0.34840400000000	0.00000000000000	0.12908700000000	-50.09298800000000	734.93862999999999	-55.82342100000000	0.12158800000000	0.00000000000000	-0.09534700000000	0.00000000000000	-6.50847900000000	0.00000000000000	0.00000000000000	-21.32902200000000	0.00000000000000	
4.64331500000000	4.38300600000000	159.23128000000000	-6.08792800000000	0.35028100000000	0.00000000000000	0.12948200000000	-50.98631300000000	729.40796000000000	-55.14049800000000	0.12072000000000	0.00000000000000	-0.09517500000000	0.00000000000000	-6.33541700000000	0.00000000000000	0.00000000000000	-21.27495200000000	0.00000000000000	
4.64498100000000	5.73122400000000	167.20091800000000	-5.38098200000000	0.35204900000000	0.00000000000000	0.12985700000000	-51.87075100000000	723.68990199999996	-54.43883900000000	0.11985800000000	0.00000000000000	-0.09500100000000	0.00000000000000	-6.14976100000000	0.00000000000000	0.00000000000000	-21.21827200000000	0.00000000000000	
4.64665100000000	7.11298600000000	175.39338300000000	-4.64535500000000	0.35371600000000	0.00000000000000	0.13021500000000	-52.74362800000000	717.78234899999995	-53.71882900000000	0.11900400000000	0.00000000000000	-0.09482400000000	0.00000000000000	-5.95186200000000	0.00000000000000	0.00000000000000	-21.15856800000000	0.00000000000000	
4.64832100000000	8.52808600000000	183.80354399999999	-3.88015100000000	0.35529000000000	0.00000000000000	0.13055700000000	-53.60221100000000	711.68337899999995	-52.98087700000000	0.11815800000000	0.00000000000000	-0.09464300000000	0.00000000000000	-5.74102200000000	0.00000000000000	0.00000000000000	-21.09541500000000	0.00000000000000	
4.64998400000000	9.97734400000000	192.41994600000001	-3.08325600000000	0.35677600000000	0.00000000000000	0.13088400000000	-54.44370800000000	705.39128100000005	-52.22541200000000	0.11732100000000	0.00000000000000	-0.09446000000000	0.00000000000000	-5.51576100000000	0.00000000000000	0.00000000000000	-21.02837500000000	0.00000000000000	
4.65164800000000	11.46213100000000	201.22639300000000	-2.25181300000000	0.35817800000000	0.00000000000000	0.13119600000000	-55.26528400000000	698.90456500000005	-51.45289200000000	0.11649400000000	0.00000000000000	-0.09427400000000	0.00000000000000	-5.27409900000000	0.00000000000000	0.00000000000000	-20.95700600000000	0.00000000000000	
4.65331400000000	12.98394200000000	210.20355100000000	-1.38268000000000	0.35950200000000	0.00000000000000	0.13149600000000	-56.06406500000000	692.22197300000005	-50.66379400000000	0.11567700000000	0.00000000000000	-0.09408600000000	0.00000000000000	-5.01382900000000	0.00000000000000	0.00000000000000	-20.88085700000000	0.00000000000000	
